<?xml version="1.0" encoding="utf-8"?>
<!-- Generator: Adobe Illustrator 15.0.0, SVG Export Plug-In  -->
<!DOCTYPE svg PUBLIC "-//W3C//DTD SVG 1.1//EN" "http://www.w3.org/Graphics/SVG/1.1/DTD/svg11.dtd" [
	<!ENTITY ns_flows "http://ns.adobe.com/Flows/1.0/">
]>
<svg version="1.1"
	 xmlns="http://www.w3.org/2000/svg" xmlns:xlink="http://www.w3.org/1999/xlink" xmlns:a="http://ns.adobe.com/AdobeSVGViewerExtensions/3.0/"
	 x="0px" y="0px" width="40px" height="20px" viewBox="0 0 40 20" overflow="visible" enable-background="new 0 0 40 20"
	 xml:space="preserve">
<defs>
</defs>
<rect fill="#8C8C00" width="3.333" height="3.333"/>
<rect x="6.667" y="3.333" fill="#8C8C00" width="3.333" height="3.333"/>
<rect x="13.333" y="3.333" fill="#8C8C00" width="3.334" height="3.333"/>
<rect x="3.333" y="6.667" fill="#8C8C00" width="3.333" height="3.333"/>
<rect x="6.667" y="6.667" fill="#8C8C00" width="3.333" height="3.333"/>
<rect x="10" y="10" fill="#8C8C00" width="3.333" height="3.333"/>
<rect x="16.667" y="10" fill="#8C8C00" width="3.333" height="3.333"/>
<rect x="3.333" y="13.333" fill="#8C8C00" width="3.333" height="3.334"/>
<rect x="3.333" y="16.667" fill="#8C8C00" width="3.333" height="3.333"/>
<rect x="10" y="16.667" fill="#8C8C00" width="3.333" height="3.333"/>
<rect x="3.333" fill="none" width="3.333" height="3.333"/>
<rect x="6.667" fill="none" width="3.333" height="3.333"/>
<rect x="10" fill="none" width="3.333" height="3.333"/>
<rect x="13.333" fill="none" width="3.334" height="3.333"/>
<rect x="16.667" fill="none" width="3.333" height="3.333"/>
<rect y="3.333" fill="none" width="3.333" height="3.333"/>
<rect x="3.333" y="3.333" fill="none" width="3.333" height="3.333"/>
<rect x="10" y="3.333" fill="none" width="3.333" height="3.333"/>
<rect x="16.667" y="3.333" fill="none" width="3.333" height="3.333"/>
<rect y="6.667" fill="none" width="3.333" height="3.333"/>
<rect x="10" y="6.667" fill="none" width="3.333" height="3.333"/>
<rect x="13.333" y="6.667" fill="none" width="3.334" height="3.333"/>
<rect x="16.667" y="6.667" fill="none" width="3.333" height="3.333"/>
<rect y="10" fill="none" width="3.333" height="3.333"/>
<rect x="3.333" y="10" fill="none" width="3.333" height="3.333"/>
<rect x="6.667" y="10" fill="none" width="3.333" height="3.333"/>
<rect x="13.333" y="10" fill="none" width="3.334" height="3.333"/>
<rect y="13.333" fill="none" width="3.333" height="3.334"/>
<rect x="6.667" y="13.333" fill="none" width="3.333" height="3.334"/>
<rect x="10" y="13.333" fill="none" width="3.333" height="3.334"/>
<rect x="13.333" y="13.333" fill="none" width="3.334" height="3.334"/>
<rect x="16.667" y="13.333" fill="none" width="3.333" height="3.334"/>
<rect y="16.667" fill="none" width="3.333" height="3.333"/>
<rect x="6.667" y="16.667" fill="none" width="3.333" height="3.333"/>
<rect x="13.333" y="16.667" fill="none" width="3.334" height="3.333"/>
<rect x="16.667" y="16.667" fill="none" width="3.333" height="3.333"/>
<rect x="20" fill="#F5F5F5" width="3.334" height="3.333"/>
<rect x="26.666" y="3.333" fill="#F5F5F5" width="3.334" height="3.333"/>
<rect x="33.333" y="3.333" fill="#F5F5F5" width="3.334" height="3.333"/>
<rect x="23.334" y="6.667" fill="#F5F5F5" width="3.332" height="3.333"/>
<rect x="26.666" y="6.667" fill="#F5F5F5" width="3.334" height="3.333"/>
<rect x="30" y="10" fill="#F5F5F5" width="3.333" height="3.333"/>
<rect x="36.667" y="10" fill="#F5F5F5" width="3.333" height="3.333"/>
<rect x="23.334" y="13.333" fill="#F5F5F5" width="3.332" height="3.334"/>
<rect x="23.334" y="16.667" fill="#F5F5F5" width="3.332" height="3.333"/>
<rect x="30" y="16.667" fill="#F5F5F5" width="3.333" height="3.333"/>
<rect x="23.334" fill="none" width="3.332" height="3.333"/>
<rect x="26.666" fill="none" width="3.334" height="3.333"/>
<rect x="30" fill="none" width="3.333" height="3.333"/>
<rect x="33.333" fill="none" width="3.334" height="3.333"/>
<rect x="36.667" fill="none" width="3.333" height="3.333"/>
<rect x="20" y="3.333" fill="none" width="3.334" height="3.333"/>
<rect x="23.334" y="3.333" fill="none" width="3.332" height="3.333"/>
<rect x="30" y="3.333" fill="none" width="3.333" height="3.333"/>
<rect x="36.667" y="3.333" fill="none" width="3.333" height="3.333"/>
<rect x="20" y="6.667" fill="none" width="3.334" height="3.333"/>
<rect x="30" y="6.667" fill="none" width="3.333" height="3.333"/>
<rect x="33.333" y="6.667" fill="none" width="3.334" height="3.333"/>
<rect x="36.667" y="6.667" fill="none" width="3.333" height="3.333"/>
<rect x="20" y="10" fill="none" width="3.334" height="3.333"/>
<rect x="23.334" y="10" fill="none" width="3.332" height="3.333"/>
<rect x="26.666" y="10" fill="none" width="3.334" height="3.333"/>
<rect x="33.333" y="10" fill="none" width="3.334" height="3.333"/>
<rect x="20" y="13.333" fill="none" width="3.334" height="3.334"/>
<rect x="26.666" y="13.333" fill="none" width="3.334" height="3.334"/>
<rect x="30" y="13.333" fill="none" width="3.333" height="3.334"/>
<rect x="33.333" y="13.333" fill="none" width="3.334" height="3.334"/>
<rect x="36.667" y="13.333" fill="none" width="3.333" height="3.334"/>
<rect x="20" y="16.667" fill="none" width="3.334" height="3.333"/>
<rect x="26.666" y="16.667" fill="none" width="3.334" height="3.333"/>
<rect x="33.333" y="16.667" fill="none" width="3.334" height="3.333"/>
<rect x="36.667" y="16.667" fill="none" width="3.333" height="3.333"/>
</svg>
